<?xml version="1.0" encoding="utf-8"?>
<!-- Generator: Adobe Illustrator 26.0.0, SVG Export Plug-In . SVG Version: 6.00 Build 0)  -->
<svg version="1.1" id="Capa_1" xmlns="http://www.w3.org/2000/svg" xmlns:xlink="http://www.w3.org/1999/xlink" x="0px" y="0px"
	 viewBox="0 0 193.51 214.7" style="enable-background:new 0 0 193.51 214.7;" xml:space="preserve">
<style type="text/css">
	.st0{fill:#FFFFFF;}
</style>
<path class="st0" d="M113.95,177.81c-12.86,0-24.15-4.85-33.85-14.56c-9.7-9.7-14.55-20.99-14.55-33.85
	c0-13.31,5.19-25.16,15.57-35.54C91.5,83.48,103.46,78.28,117,78.28c12.18,0,22.56,4.96,31.13,14.86l-61.92,47.09l18.28,22.68
	l89.03-67.71c-2.92-7.42-12.43-28.66-35.71-42.14c-18.18-10.53-35.43-11-42.48-11c-9.29,0-17.99,1.16-26.09,3.46l-6.56-7.93
	c9.04-7.47,10.31-20.85,2.84-29.88C78.04-1.33,64.66-2.6,55.63,4.87c-1.78,1.47-3.24,3.17-4.41,5.02
	c-9.04-5.25-20.75-4.65-29.28,2.4c-8.6,7.11-11.36,18.63-7.77,28.56c-2.29,0.81-4.49,2-6.47,3.64c-9.03,7.47-10.3,20.85-2.84,29.88
	c7.47,9.03,20.85,10.3,29.88,2.84l5.54,6.7c-7.76,13.24-11.63,28.4-11.63,45.49c0,24.6,8.13,44.97,24.37,61.1
	c16.25,16.14,36.67,24.2,61.27,24.2c8.89,0,27.04-0.28,45.87-11.85c16.8-10.32,25.5-24.31,29.28-31.48l-31.84-18.28
	C145.43,169.57,130.88,177.81,113.95,177.81z"/>
</svg>
